<?xml version="1.0" encoding="UTF-8" standalone="no"?>
<!-- Created with Inkscape (http://www.inkscape.org/) -->

<svg
   width="240mm"
   height="120mm"
   viewBox="0 0 240 120"
   version="1.1"
   id="svg8"
   inkscape:version="1.3 (0e150ed6c4, 2023-07-21)"
   sodipodi:docname="rope.svg"
   xmlns:inkscape="http://www.inkscape.org/namespaces/inkscape"
   xmlns:sodipodi="http://sodipodi.sourceforge.net/DTD/sodipodi-0.dtd"
   xmlns="http://www.w3.org/2000/svg"
   xmlns:svg="http://www.w3.org/2000/svg"
   xmlns:rdf="http://www.w3.org/1999/02/22-rdf-syntax-ns#"
   xmlns:cc="http://creativecommons.org/ns#"
   xmlns:dc="http://purl.org/dc/elements/1.1/">
  <defs
     id="defs2" />
  <sodipodi:namedview
     id="base"
     pagecolor="#ffffff"
     bordercolor="#666666"
     borderopacity="1.0"
     inkscape:pageopacity="0.0"
     inkscape:pageshadow="2"
     inkscape:zoom="0.99437388"
     inkscape:cx="364.04818"
     inkscape:cy="183.02975"
     inkscape:document-units="mm"
     inkscape:current-layer="layer1"
     showgrid="false"
     showborder="true"
     width="200mm"
     showguides="true"
     inkscape:guide-bbox="true"
     inkscape:window-width="1920"
     inkscape:window-height="1038"
     inkscape:window-x="0"
     inkscape:window-y="21"
     inkscape:window-maximized="1"
     inkscape:showpageshadow="0"
     inkscape:pagecheckerboard="1"
     inkscape:deskcolor="#d1d1d1">
    <inkscape:grid
       type="xygrid"
       id="grid815"
       units="mm"
       spacingx="10"
       spacingy="10"
       empspacing="4"
       dotted="false"
       originx="0"
       originy="0"
       visible="false" />
  </sodipodi:namedview>
  <metadata
     id="metadata5">
    <rdf:RDF>
      <cc:Work
         rdf:about="">
        <dc:format>image/svg+xml</dc:format>
        <dc:type
           rdf:resource="http://purl.org/dc/dcmitype/StillImage" />
        <dc:title />
      </cc:Work>
    </rdf:RDF>
  </metadata>
  <g
     inkscape:label="Layer 1"
     inkscape:groupmode="layer"
     id="layer1"
     transform="translate(0,-177)">
    <rect
       style="fill:#000000;stroke-width:0"
       id="rect1"
       width="108.61302"
       height="3.6108174"
       x="67.475868"
       y="197.25671"
       rx="0.21210897" />
    <path
       style="fill:#000000;stroke-width:0"
       id="path1"
       d="m 119.30905,199.21318 c -0.0569,2.44908 -0.80711,4.78674 -1.53557,7.10154 -0.44982,1.29502 -0.93648,2.58956 -1.62805,3.77903 -0.66368,1.1415 -1.50145,2.14633 -2.35256,3.1484 -1.61091,1.86481 -3.50301,3.54672 -4.79839,5.66574 -0.26882,0.43973 -0.48521,0.90945 -0.72782,1.36418 -0.19203,0.52729 -0.41466,1.04442 -0.57609,1.58187 -0.6134,2.04228 -1.00644,4.37383 -0.93445,6.51246 0.0152,0.45245 0.0807,0.90182 0.12104,1.35272 0.18529,2.18262 1.08563,4.145 2.10023,6.04913 0.78477,1.40971 1.97996,2.52525 3.09723,3.66933 1.44449,1.56844 2.9631,3.08153 4.21682,4.81343 0.3074,0.42465 0.586,0.86942 0.879,1.30413 1.00858,1.60057 1.86838,3.30324 2.42507,5.11571 0.31033,1.01036 0.33058,1.27163 0.52526,2.30074 0.27812,1.76464 0.37799,3.53931 0.12444,5.30885 -0.1246,0.86271 -0.60506,1.55586 -1.08246,2.25599 -0.41684,0.67935 -0.88721,1.31625 -1.25343,2.02573 -0.3416,0.60851 -0.62411,1.24708 -0.80375,1.92143 -0.16195,0.67774 -0.15898,1.37767 -0.17011,2.07006 -0.0173,0.57741 -0.0354,1.16039 0.19582,1.6999 0.30901,0.61685 0.25753,0.99873 1.19702,-0.0117 0.0989,-0.10633 0.009,-0.29025 0.0132,-0.43538 0.0177,-0.57499 0.031,-1.14949 0.0115,-1.72459 -2.6e-4,-0.008 0.003,-0.54686 -0.0767,-0.64483 -0.0304,-0.0375 -0.0947,-0.0195 -0.14201,-0.0293 -0.32471,0.28491 -0.71361,0.51015 -0.97413,0.85474 -0.0635,0.084 -0.25487,1.36738 -0.25576,1.37344 -0.10175,0.69671 -0.17233,1.39705 -0.24569,2.09713 -0.0474,0.60028 -0.36556,1.17829 0.7905,-0.002 0.0263,-0.0269 -0.0922,-1.15897 -0.0996,-1.23669 -0.14771,-0.83598 -0.37929,-1.65756 -0.7416,-2.42662 -0.009,-0.0231 -0.006,-0.0837 -0.026,-0.0694 -0.928,0.66211 -0.99083,0.63994 -0.29562,1.11124 0.62123,0.48554 -0.56915,0.97056 0.77236,0.14096 -0.0571,0.0155 -0.1125,0.0392 -0.17118,0.0463 -0.0891,0.0109 -0.1966,-0.006 -0.28089,-0.0385 -0.0196,-0.008 -0.0369,-0.048 -0.0529,-0.0343 -0.73646,0.62941 -0.82496,0.51647 -0.30189,0.65989 0.29938,0.13655 0.25212,0.0828 0.47847,0.30381 0.0523,0.051 0.10689,0.10158 0.14669,0.16284 0.0129,0.0198 -0.0114,0.0876 0.005,0.0706 0.89598,-0.93082 0.7897,-0.5178 0.56371,-1.52848 -0.0478,-0.31269 -0.10504,-0.62407 -0.14331,-0.93806 -0.0798,-0.65464 -0.28708,-1.66091 0.21719,-2.22556 0.1,-0.11196 0.39006,-0.37467 0.39033,-0.22456 2.7e-4,0.20873 -0.2599,0.3267 -0.38985,0.49005 1.13003,0.40964 1.43455,1.05341 1.65727,2.16862 0.0248,0.84783 -0.05,1.89286 -0.86165,2.36485 0.21403,-0.15663 0.50261,-0.2443 0.64209,-0.46988 0.0524,-0.0848 -0.18002,-0.0933 -0.24984,-0.16452 -0.0997,-0.10161 -0.17879,-0.22283 -0.25062,-0.3457 -0.24703,-0.42258 -0.35841,-0.83067 -0.39166,-1.31147 0.0517,-0.0582 0.21521,-0.2237 0.15499,-0.17446 -0.2159,0.17655 -0.53113,0.29464 -0.62369,0.55773 -0.0535,0.15213 0.20751,0.24847 0.29164,0.38606 0.13998,0.22892 0.37732,0.71068 0.40556,0.99943 0.0113,0.11534 -0.0409,0.22814 -0.0614,0.34221 -0.0736,0.0533 -0.29101,0.21772 -0.22088,0.1599 0.18328,-0.15113 0.45002,-0.22977 0.56059,-0.44002 0.0462,-0.0878 -0.19681,-0.0387 -0.28631,-0.0815 -0.39346,-0.18833 -0.47718,-0.49804 -0.57017,-0.88946 -0.0123,-0.47135 -0.10706,-0.9879 0.0229,-1.45366 0.0327,-0.11734 0.28455,-0.34792 0.16467,-0.32626 -1.25913,0.22753 -0.40501,0.45271 -0.18463,0.54148 0.64299,0.66961 1.50303,1.6326 1.33263,2.64392 -0.031,0.0276 -0.12793,0.1052 -0.093,0.0828 0.24807,-0.15929 0.52511,-0.28559 0.73354,-0.49407 0.04,-0.04 -0.0861,-0.076 -0.11508,-0.12456 -0.0497,-0.0832 -0.0848,-0.17466 -0.11818,-0.26566 -0.1106,-0.30184 -0.10265,-0.3434 -0.1529,-0.65318 0.0145,-0.0898 0.12782,-0.30338 0.0434,-0.26946 -0.25611,0.10289 -0.52845,0.26525 -0.64988,0.51311 -0.0547,0.11157 0.19602,0.15553 0.27555,0.25097 0.33643,0.40371 0.53026,0.87347 0.70329,1.36129 0.0196,0.12049 0.0598,0.23939 0.0589,0.36146 -2.6e-4,0.0407 -0.47475,1.64783 0.56101,-0.17517 0.0531,-0.0934 -0.20116,-0.0872 -0.27939,-0.1609 -0.1901,-0.17905 -0.44998,-0.61341 -0.58698,-0.8266 -0.29344,-0.48555 -0.15922,-0.24948 -0.40572,-0.70647 0,0 -0.85288,0.48962 -0.85288,0.48962 v 0 c 0.25311,0.45959 0.11578,0.22261 0.41487,0.70928 0.10193,0.15901 0.70961,1.16046 0.92905,1.10365 1.04434,-0.27035 1.1782,-0.5018 1.01768,-1.26936 -0.18375,-0.50017 -0.38922,-0.97776 -0.72327,-1.40098 -0.0915,-0.11595 -0.16251,-0.33816 -0.30883,-0.31784 -0.38135,0.053 -0.73063,0.2742 -1.03875,0.50505 -0.0789,0.0591 -0.0189,0.19626 -0.0283,0.29439 0.12009,0.67663 0.56264,2.25773 1.5023,0.55418 0.0795,-1.06707 -0.7198,-2.01628 -1.40073,-2.74684 -0.13512,-0.0713 -0.25775,-0.25336 -0.40535,-0.21394 -1.53612,0.41032 -1.36672,1.2232 -1.27837,2.45984 0.0379,0.1487 0.0517,0.30573 0.11372,0.44608 0.44464,1.00616 1.55303,0.67507 2.14819,-0.0959 0.0121,-0.12561 0.0532,-0.25176 0.0363,-0.37682 -0.0277,-0.20587 -0.54661,-1.4636 -0.73589,-1.47032 -0.94839,-0.0337 -0.97517,0.14759 -1.22129,0.62411 0.0608,0.61489 0.25166,1.26253 0.68149,1.73232 0.0801,0.0876 0.16428,0.24056 0.28097,0.21881 0.38637,-0.072 0.72014,-0.31509 1.08021,-0.47264 0.76255,-0.56403 0.83551,-1.58543 0.79841,-2.46376 -0.23373,-1.16975 -0.56389,-1.8118 -1.71997,-2.28096 -0.13214,0.0439 -1.38292,0.30548 -1.68333,0.70952 -0.58285,0.78392 -0.11745,2.33779 -0.0391,3.21733 0.0507,0.24231 -0.0679,0.61371 0.15223,0.72693 1.76375,0.907 0.88072,-0.75585 0.32105,-0.74991 -0.0975,-0.0311 -0.19499,-0.12409 -0.29257,-0.0932 -1.36378,0.43187 -1.28915,0.65692 -0.48759,0.63879 0.5152,-0.30654 1.59244,-0.63427 0.83674,-1.29845 -0.13004,-0.0871 -0.26669,-0.15951 -0.36821,-0.28196 -0.0358,-0.0431 -0.0406,-0.14838 -0.0957,-0.13816 -1.03969,0.19283 -1.08197,0.0399 -0.91321,0.40288 0.37486,0.7502 0.59746,1.56417 0.73667,2.38895 0.0159,0.17964 0.0667,0.73258 0.078,0.93208 0.006,0.10539 -0.0968,0.31774 0.009,0.31655 1.02081,-0.0115 0.9032,-0.27061 0.96143,-0.89554 0.0918,-0.95177 0.1786,-1.91065 0.37229,-2.84845 0.0418,-0.20228 0.31341,-0.47473 0.15011,-0.6012 -0.18992,-0.14709 -0.46584,0.11752 -0.69876,0.17628 0.0171,-0.0387 0.0169,-0.14085 0.0513,-0.11624 0.0706,0.0504 0.076,0.54222 0.0789,0.61676 0.0218,0.57351 0.007,1.14668 -0.02,1.71978 -0.0129,0.1385 -0.17737,0.40673 -0.0386,0.41549 1.28249,0.081 0.77682,-0.43966 0.56922,-0.89366 -0.22384,-0.52591 -0.19496,-1.09823 -0.18352,-1.65945 0.0118,-0.68601 0.0166,-1.37943 0.18374,-2.04932 0.18689,-0.66609 0.4726,-1.29697 0.80959,-1.90083 0.37215,-0.70268 0.84164,-1.33919 1.2582,-2.01531 0.48247,-0.70797 0.94101,-1.42054 1.05453,-2.29279 0.2341,-1.77691 0.1204,-3.55691 -0.16043,-5.32548 -0.20148,-1.04771 -0.21653,-1.28215 -0.53683,-2.31013 -0.5664,-1.81776 -1.4354,-3.52316 -2.44786,-5.13062 -0.29393,-0.43653 -0.57394,-0.88277 -0.88181,-1.30958 -1.25128,-1.73463 -2.75998,-3.25988 -4.19262,-4.84076 -1.11162,-1.13725 -2.30084,-2.24606 -3.08928,-3.64252 -1.01684,-1.88817 -1.90368,-3.83972 -2.09811,-6.00672 -0.0398,-0.4474 -0.10413,-0.8933 -0.1195,-1.3422 -0.074,-2.16039 0.30342,-4.41952 0.9381,-6.47955 0.16474,-0.53472 0.39135,-1.04838 0.58704,-1.57257 0.24481,-0.45169 0.46409,-0.91819 0.73445,-1.35507 1.30734,-2.11254 3.19741,-3.79336 4.80801,-5.66061 0.74053,-0.87869 1.00368,-1.14846 1.65816,-2.09476 1.02877,-1.48747 1.73909,-3.14656 2.29625,-4.8617 0.73067,-2.33238 1.47733,-4.68166 1.5802,-7.14371 z" />
  </g>
</svg>
